<?xml version="1.0" standalone="no"?>
<!DOCTYPE svg PUBLIC "-//W3C//DTD SVG 20010904//EN"
 "http://www.w3.org/TR/2001/REC-SVG-20010904/DTD/svg10.dtd">
<svg version="1.0" xmlns="http://www.w3.org/2000/svg"
 width="1024.000000pt" height="1024.000000pt" viewBox="0 0 1024.000000 1024.000000"
 preserveAspectRatio="xMidYMid meet">

<g transform="translate(0.000000,1024.000000) scale(0.100000,-0.100000)"
fill="#000000" stroke="none">
<path d="M0 5120 l0 -5120 5120 0 5120 0 0 5120 0 5120 -5120 0 -5120 0 0
-5120z m3819 1325 c180 -43 331 -177 392 -350 29 -84 36 -245 15 -345 -45
-212 -202 -376 -407 -425 -80 -19 -214 -19 -300 -1 -185 39 -339 184 -400 376
-32 99 -30 258 5 366 25 77 77 166 135 228 33 36 125 99 177 121 103 44 268
57 383 30z m-1014 -7 l25 -11 0 -537 c0 -488 -2 -539 -17 -551 -9 -8 -47 -15
-94 -18 -72 -3 -79 -1 -99 21 -11 14 -127 182 -258 375 -130 192 -247 363
-259 379 l-22 29 -1 -391 c0 -352 -2 -393 -17 -405 -21 -18 -119 -14 -150 6
l-23 15 0 530 0 529 22 15 c16 11 46 16 98 16 l77 0 140 -207 c77 -115 201
-299 277 -410 l136 -203 0 397 c0 456 -5 433 86 433 29 0 65 -5 79 -12z m2459
-11 c23 -17 33 -104 17 -136 -11 -20 -18 -21 -181 -21 l-170 0 0 -459 0 -460
-22 -15 c-27 -19 -138 -22 -156 -4 -9 9 -12 128 -12 475 l0 463 -169 0 c-138
0 -171 3 -181 15 -19 23 -8 124 15 141 27 20 832 20 859 1z m926 -5 c32 -26
32 -93 0 -127 l-23 -25 -224 0 -223 0 0 -155 0 -155 199 0 c195 0 200 -1 215
-22 18 -26 21 -90 6 -119 -10 -18 -23 -19 -215 -19 l-205 0 0 -155 0 -155 235
0 c225 0 236 -1 256 -21 18 -18 20 -28 14 -67 -12 -86 3 -82 -344 -82 -261 0
-310 2 -329 16 l-22 15 0 526 c0 476 2 528 17 545 15 17 38 18 318 18 278 0
305 -1 325 -18z m796 3 c281 -49 444 -251 444 -550 0 -205 -77 -361 -223 -456
-114 -74 -240 -99 -498 -99 -146 0 -161 2 -179 20 -20 20 -20 30 -18 551 3
458 5 531 18 539 25 16 357 12 456 -5z m-4575 -1555 c18 -10 19 -25 19 -408 0
-218 -4 -423 -10 -455 -19 -120 -81 -211 -170 -250 -56 -25 -171 -33 -238 -17
-65 15 -131 58 -139 89 -7 29 42 131 62 131 7 0 39 -14 71 -31 47 -24 67 -30
98 -26 50 7 86 33 111 83 19 37 20 62 23 434 1 217 4 405 7 417 8 35 120 57
166 33z m488 -7 c20 -18 21 -27 23 -403 3 -346 5 -389 21 -425 44 -98 127
-141 253 -133 97 6 157 41 193 113 l26 49 3 398 c4 457 -4 424 103 416 97 -7
90 27 87 -442 l-3 -411 -28 -60 c-52 -111 -162 -198 -285 -224 -66 -14 -192
-14 -252 0 -103 24 -204 97 -257 188 -48 81 -53 125 -53 543 0 441 -8 407 91
408 40 0 63 -5 78 -17z m2979 1 l22 -15 0 -525 c0 -335 -4 -532 -10 -544 -12
-23 -68 -40 -132 -40 -38 0 -50 5 -63 23 -8 12 -131 196 -273 410 l-257 387
-5 -402 -5 -403 -26 -9 c-36 -12 -117 2 -140 25 -18 18 -19 39 -19 543 l0 525
22 15 c16 11 46 16 99 16 l77 0 267 -400 c147 -220 268 -400 270 -400 1 0 3
177 4 392 2 258 6 397 13 405 15 19 128 17 156 -3z m1660 0 l22 -15 0 -464 0
-464 226 -3 c259 -3 254 -1 254 -95 0 -41 -4 -54 -19 -63 -12 -6 -130 -10
-314 -10 -266 0 -297 2 -316 18 l-21 17 2 535 3 534 25 13 c35 18 111 16 138
-3z m-3108 -16 c125 -32 217 -108 245 -202 18 -58 18 -188 2 -233 -26 -71 -72
-119 -145 -154 -40 -19 -69 -39 -67 -46 2 -6 65 -107 139 -224 75 -116 133
-215 131 -219 -3 -5 -28 -13 -56 -20 -65 -16 -139 -8 -157 17 -7 10 -70 114
-139 231 l-125 212 -74 0 -74 0 0 -215 c0 -206 -1 -216 -21 -236 -19 -19 -29
-21 -78 -15 -98 11 -91 -30 -91 571 0 478 1 525 17 540 15 16 39 17 227 12
132 -3 232 -10 266 -19z m2293 10 c18 -14 417 -1040 417 -1075 0 -26 -44 -43
-115 -45 -34 0 -52 5 -65 18 -11 11 -39 75 -62 144 l-44 125 -224 3 -225 2
-44 -127 c-24 -69 -53 -135 -63 -145 -38 -38 -175 -9 -172 37 1 11 58 162 127
335 68 173 159 405 202 515 42 110 84 206 93 213 9 7 45 12 87 12 41 0 78 -5
88 -12z"/>
<path d="M3603 6280 c-111 -23 -221 -108 -270 -209 -26 -53 -28 -64 -28 -191
0 -133 1 -137 33 -202 38 -77 92 -130 171 -167 49 -23 68 -26 161 -26 124 0
171 17 248 89 116 109 153 335 82 500 -28 67 -109 148 -178 179 -64 29 -156
40 -219 27z"/>
<path d="M6743 6272 l-33 -3 0 -396 0 -396 108 6 c232 13 351 89 398 252 21
75 21 215 0 288 -33 114 -120 201 -230 231 -51 14 -182 24 -243 18z"/>
<path d="M4112 4533 l3 -168 99 -3 c175 -5 254 26 277 111 16 59 3 121 -33
162 -41 48 -105 65 -240 65 l-108 0 2 -167z"/>
<path d="M6622 4610 c-5 -14 -42 -112 -82 -218 -40 -106 -71 -195 -68 -197 3
-3 77 -4 166 -3 l160 3 -83 220 c-73 191 -85 217 -93 195z"/>
</g>
</svg>
